<svg width="277" height="35" viewBox="0 0 277 35" fill="none" xmlns="http://www.w3.org/2000/svg">
<path d="M35.144 34H27.416L26.84 20.992C26.68 17.888 26.6 15.12 26.6 12.688C26.6 10.832 26.648 9.07199 26.744 7.40799L21.608 30.496H14.168L8.69598 7.40799C8.88798 10.192 8.98398 12.816 8.98398 15.28C8.98398 17.136 8.93598 19.072 8.83998 21.088L8.26398 34H0.583984L3.07998 0.735992H13.016L18.008 23.296L22.664 0.735992H32.648L35.144 34Z" fill="black"/>
<path d="M59.9664 26.608C59.9664 27.568 60.0944 28.272 60.3504 28.72C60.6384 29.168 61.0864 29.504 61.6944 29.728L60.1104 34.672C58.5424 34.544 57.2624 34.208 56.2704 33.664C55.2784 33.088 54.5104 32.192 53.9664 30.976C52.3024 33.536 49.7424 34.816 46.2864 34.816C43.7584 34.816 41.7424 34.08 40.2384 32.608C38.7344 31.136 37.9824 29.216 37.9824 26.848C37.9824 24.064 39.0064 21.936 41.0544 20.464C43.1024 18.992 46.0624 18.256 49.9344 18.256H52.5264V17.152C52.5264 15.648 52.2064 14.624 51.5664 14.08C50.9264 13.504 49.8064 13.216 48.2064 13.216C47.3744 13.216 46.3664 13.344 45.1824 13.6C43.9984 13.824 42.7824 14.144 41.5344 14.56L39.8064 9.56799C41.4064 8.95999 43.0384 8.49599 44.7024 8.17599C46.3984 7.85599 47.9664 7.69599 49.4064 7.69599C53.0544 7.69599 55.7264 8.44799 57.4224 9.95199C59.1184 11.456 59.9664 13.712 59.9664 16.72V26.608ZM48.4944 29.392C50.2224 29.392 51.5664 28.576 52.5264 26.944V22.432H50.6544C48.9264 22.432 47.6304 22.736 46.7664 23.344C45.9344 23.952 45.5184 24.896 45.5184 26.176C45.5184 27.2 45.7744 28 46.2864 28.576C46.8304 29.12 47.5664 29.392 48.4944 29.392Z" fill="black"/>
<path d="M81.9912 32.8C81.0632 33.44 79.9752 33.936 78.7272 34.288C77.5112 34.64 76.2952 34.816 75.0792 34.816C69.5112 34.784 66.7272 31.712 66.7272 25.6V13.792H63.1272V8.51199H66.7272V2.99199L74.3112 2.12799V8.51199H80.1672L79.3512 13.792H74.3112V25.504C74.3112 26.688 74.5032 27.536 74.8872 28.048C75.2712 28.56 75.8792 28.816 76.7112 28.816C77.5752 28.816 78.4872 28.544 79.4472 28L81.9912 32.8Z" fill="black"/>
<path d="M105.903 20.752C105.903 21.808 105.855 22.72 105.759 23.488H89.9671C90.2231 25.632 90.8311 27.136 91.7911 28C92.7511 28.864 94.0791 29.296 95.7751 29.296C96.7991 29.296 97.7911 29.12 98.7511 28.768C99.7111 28.384 100.751 27.808 101.871 27.04L104.991 31.264C102.015 33.632 98.7031 34.816 95.0551 34.816C90.9271 34.816 87.7591 33.6 85.5511 31.168C83.3431 28.736 82.2391 25.472 82.2391 21.376C82.2391 18.784 82.7031 16.464 83.6311 14.416C84.5591 12.336 85.9191 10.704 87.7111 9.51999C89.5031 8.30399 91.6471 7.69599 94.1431 7.69599C97.8231 7.69599 100.703 8.84799 102.783 11.152C104.863 13.456 105.903 16.656 105.903 20.752ZM98.4631 18.592C98.3991 14.688 97.0231 12.736 94.3351 12.736C93.0231 12.736 91.9991 13.216 91.2631 14.176C90.5591 15.136 90.1271 16.72 89.9671 18.928H98.4631V18.592Z" fill="black"/>
<path d="M131.667 34H125.091L124.755 30.784C122.899 33.472 120.323 34.816 117.027 34.816C114.691 34.816 112.915 34.112 111.699 32.704C110.515 31.296 109.923 29.328 109.923 26.8V8.51199H117.507V25.84C117.507 27.088 117.699 27.968 118.083 28.48C118.499 28.96 119.123 29.2 119.955 29.2C121.555 29.2 122.931 28.208 124.083 26.224V8.51199H131.667V34Z" fill="black"/>
<path d="M146.608 7.69599C148.432 7.69599 150.144 7.96799 151.744 8.51199C153.344 9.05599 154.752 9.82399 155.968 10.816L153.184 15.088C151.104 13.776 149.008 13.12 146.896 13.12C145.904 13.12 145.136 13.296 144.592 13.648C144.08 13.968 143.824 14.432 143.824 15.04C143.824 15.52 143.936 15.92 144.16 16.24C144.416 16.528 144.912 16.832 145.648 17.152C146.384 17.472 147.52 17.856 149.056 18.304C151.712 19.072 153.68 20.08 154.96 21.328C156.272 22.544 156.928 24.24 156.928 26.416C156.928 28.144 156.432 29.648 155.44 30.928C154.448 32.176 153.088 33.136 151.36 33.808C149.632 34.48 147.712 34.816 145.6 34.816C143.456 34.816 141.456 34.48 139.6 33.808C137.776 33.136 136.224 32.208 134.944 31.024L138.64 26.896C140.784 28.56 143.04 29.392 145.408 29.392C146.56 29.392 147.456 29.184 148.096 28.768C148.768 28.352 149.104 27.76 149.104 26.992C149.104 26.384 148.976 25.904 148.72 25.552C148.464 25.2 147.968 24.88 147.232 24.592C146.496 24.272 145.328 23.888 143.728 23.44C141.2 22.704 139.312 21.68 138.064 20.368C136.816 19.056 136.192 17.424 136.192 15.472C136.192 14 136.608 12.688 137.44 11.536C138.304 10.352 139.52 9.42399 141.088 8.75199C142.688 8.04799 144.528 7.69599 146.608 7.69599Z" fill="black"/>
<path d="M186.05 7.79199C186.978 7.79199 187.826 7.90399 188.594 8.12799L187.394 15.472C186.434 15.248 185.666 15.136 185.09 15.136C183.586 15.136 182.434 15.664 181.634 16.72C180.866 17.744 180.258 19.296 179.81 21.376V34H172.226V8.51199H178.85L179.474 13.456C180.05 11.696 180.914 10.32 182.066 9.32799C183.25 8.30399 184.578 7.79199 186.05 7.79199Z" fill="black"/>
<path d="M201.078 7.69599C204.982 7.69599 208.038 8.89599 210.246 11.296C212.454 13.664 213.558 16.992 213.558 21.28C213.558 24 213.046 26.384 212.022 28.432C211.03 30.448 209.59 32.016 207.702 33.136C205.846 34.256 203.638 34.816 201.078 34.816C197.206 34.816 194.15 33.632 191.91 31.264C189.702 28.864 188.598 25.52 188.598 21.232C188.598 18.512 189.094 16.144 190.086 14.128C191.11 12.08 192.55 10.496 194.406 9.37599C196.294 8.25599 198.518 7.69599 201.078 7.69599ZM201.078 13.264C199.542 13.264 198.39 13.92 197.622 15.232C196.854 16.512 196.47 18.512 196.47 21.232C196.47 24.016 196.838 26.048 197.574 27.328C198.342 28.608 199.51 29.248 201.078 29.248C202.614 29.248 203.766 28.608 204.534 27.328C205.302 26.016 205.686 24 205.686 21.28C205.686 18.496 205.302 16.464 204.534 15.184C203.798 13.904 202.646 13.264 201.078 13.264Z" fill="black"/>
<path d="M234.054 32.8C233.126 33.44 232.038 33.936 230.79 34.288C229.574 34.64 228.358 34.816 227.142 34.816C221.574 34.784 218.79 31.712 218.79 25.6V13.792H215.19V8.51199H218.79V2.99199L226.374 2.12799V8.51199H232.23L231.414 13.792H226.374V25.504C226.374 26.688 226.566 27.536 226.95 28.048C227.334 28.56 227.942 28.816 228.774 28.816C229.638 28.816 230.55 28.544 231.51 28L234.054 32.8Z" fill="black"/>
<path d="M252.569 32.8C251.641 33.44 250.553 33.936 249.305 34.288C248.089 34.64 246.873 34.816 245.657 34.816C240.089 34.784 237.305 31.712 237.305 25.6V13.792H233.705V8.51199H237.305V2.99199L244.889 2.12799V8.51199H250.745L249.929 13.792H244.889V25.504C244.889 26.688 245.081 27.536 245.465 28.048C245.849 28.56 246.457 28.816 247.289 28.816C248.153 28.816 249.065 28.544 250.025 28L252.569 32.8Z" fill="black"/>
<path d="M274.794 26.608C274.794 27.568 274.922 28.272 275.178 28.72C275.466 29.168 275.914 29.504 276.522 29.728L274.938 34.672C273.37 34.544 272.09 34.208 271.098 33.664C270.106 33.088 269.338 32.192 268.794 30.976C267.13 33.536 264.57 34.816 261.114 34.816C258.586 34.816 256.57 34.08 255.066 32.608C253.562 31.136 252.81 29.216 252.81 26.848C252.81 24.064 253.834 21.936 255.882 20.464C257.93 18.992 260.89 18.256 264.762 18.256H267.354V17.152C267.354 15.648 267.034 14.624 266.394 14.08C265.754 13.504 264.634 13.216 263.034 13.216C262.202 13.216 261.194 13.344 260.01 13.6C258.826 13.824 257.61 14.144 256.362 14.56L254.634 9.56799C256.234 8.95999 257.866 8.49599 259.53 8.17599C261.226 7.85599 262.794 7.69599 264.234 7.69599C267.882 7.69599 270.554 8.44799 272.25 9.95199C273.946 11.456 274.794 13.712 274.794 16.72V26.608ZM263.322 29.392C265.05 29.392 266.394 28.576 267.354 26.944V22.432H265.482C263.754 22.432 262.458 22.736 261.594 23.344C260.762 23.952 260.346 24.896 260.346 26.176C260.346 27.2 260.602 28 261.114 28.576C261.658 29.12 262.394 29.392 263.322 29.392Z" fill="black"/>
</svg>
